# xmcd
#
# Track frame offsets:
#	150
#	21416
#	36324
#	51432
#	66221
#	85011
#	97815
#	110980
#	126094
#	144628
#	161361
#	179986
#	196057
#
# Disc length: 2801 seconds
#
# Revision: 0
# Processed by: cddbd v1.5.2PL0 Copyright (c) Steve Scherf et al.
# Submitted via: EasyCDDAExtractor 16.0.8.2
#
DISCID=bc0aef0d
DTITLE=Παπάζογλου Νίκος - Τα μεγάλα τραγούδια-Ν. Παπάζογλου 1
DYEAR=2015
DGENRE=Έντεχνη λαϊκή
TTITLE0=Υροχόος [Βάσω Αλαγιάννη-Μ. Ρασούλης]
TTITLE1=Με το τραγούδι, με το κρασί [[Ν. Παπάζογλου]
TTITLE2=Αύγουστος [Ν. Παπάζογλου]
TTITLE3=Χαράτσι [Ν. Παπάζογλου-Τάκης Σιμώτας]
TTITLE4=Λεμόνι στην πορτοκαλιά [Βάσω Αλαγιάννη-Μ. Ρασούλης]
TTITLE5=Στάλα-στάλα [Ν. Παπάζογλου]
TTITLE6=Καρυάτιδα [Ν. Παπάζογλου]
TTITLE7=Σύνεργα [Ν. Παπάζογλου]
TTITLE8=Μάτια μου [Ορφέας Περίδης]
TTITLE9=Δραπέτες [Γιώργος Ζήκας]
TTITLE10=Απόψε σιωπηλοί [Βάσω Αλαγιάννη]
TTITLE11=Χάρτινο καραβάκι [Ν. Παπάζογλου-Τάκης Σιμώτας]
TTITLE12=Κανείς εδώ δεν τραγουδά [Ν. Παπάζογλου-Τάκης Σιμώτας]
EXTD=
EXTT0=
EXTT1=
EXTT2=
EXTT3=
EXTT4=
EXTT5=
EXTT6=
EXTT7=
EXTT8=
EXTT9=
EXTT10=
EXTT11=
EXTT12=
PLAYORDER=
